<svg width="68" height="68" viewBox="0 0 68 68" fill="none" xmlns="http://www.w3.org/2000/svg">
<rect x="4" y="4" width="60" height="60" rx="30" fill="#FEF0C7"/>
<path d="M33.4998 28.6666V33.5M33.4998 38.3333H33.5118M31.4335 22.4558L21.1989 39.5416C20.9879 39.9071 20.8763 40.3214 20.8751 40.7433C20.8739 41.1653 20.9832 41.5802 21.1922 41.9468C21.4011 42.3134 21.7025 42.6189 22.0661 42.8329C22.4298 43.0469 22.8432 43.162 23.2652 43.1666H43.7343C44.1563 43.162 44.5697 43.0469 44.9334 42.8329C45.297 42.6189 45.5984 42.3134 45.8073 41.9468C46.0163 41.5802 46.1256 41.1653 46.1244 40.7433C46.1233 40.3214 46.0116 39.9071 45.8006 39.5416L35.566 22.4558C35.3506 22.1007 35.0473 21.8071 34.6854 21.6033C34.3234 21.3995 33.9151 21.2925 33.4998 21.2925C33.0844 21.2925 32.6761 21.3995 32.3141 21.6033C31.9522 21.8071 31.6489 22.1007 31.4335 22.4558Z" stroke="#DC6803" stroke-width="2.5" stroke-linecap="round" stroke-linejoin="round"/>
<rect x="4" y="4" width="60" height="60" rx="30" stroke="#FFFAEB" stroke-width="8"/>
</svg>
