<svg width="44" height="44" viewBox="0 0 44 44" fill="none" xmlns="http://www.w3.org/2000/svg">
<g filter="url(#filter0_dd_24_9086)">
<g clip-path="url(#clip0_24_9086)">
<rect x="4" y="3" width="36" height="36" rx="9" fill="white"/>
<rect x="4" y="3" width="36" height="36" rx="9" fill="url(#paint0_linear_24_9086)"/>
<path fill-rule="evenodd" clip-rule="evenodd" d="M21.9997 5.29369C13.3254 5.29369 6.29343 12.3256 6.29343 21C6.29343 29.6744 13.3254 36.7063 21.9997 36.7063C30.6741 36.7063 37.7061 29.6744 37.7061 21C37.7061 12.3256 30.6741 5.29369 21.9997 5.29369ZM6.20605 21C6.20605 12.2774 13.2771 5.20631 21.9997 5.20631C30.7224 5.20631 37.7934 12.2774 37.7934 21C37.7934 29.7226 30.7224 36.7937 21.9997 36.7937C13.2771 36.7937 6.20605 29.7226 6.20605 21Z" fill="#D0D5DD"/>
<path fill-rule="evenodd" clip-rule="evenodd" d="M22 16.5876C19.563 16.5876 17.5874 18.5632 17.5874 21.0003C17.5874 23.4373 19.563 25.4129 22 25.4129C24.437 25.4129 26.4126 23.4373 26.4126 21.0003C26.4126 18.5632 24.437 16.5876 22 16.5876ZM17.5 21.0003C17.5 18.515 19.5147 16.5003 22 16.5003C24.4853 16.5003 26.5 18.515 26.5 21.0003C26.5 23.4855 24.4853 25.5003 22 25.5003C19.5147 25.5003 17.5 23.4855 17.5 21.0003Z" fill="#D0D5DD"/>
<path fill-rule="evenodd" clip-rule="evenodd" d="M22 17.9851C20.3351 17.9851 18.9854 19.3348 18.9854 20.9997C18.9854 22.6646 20.3351 24.0142 22 24.0142C23.6648 24.0142 25.0145 22.6646 25.0145 20.9997C25.0145 19.3348 23.6648 17.9851 22 17.9851ZM18.898 20.9997C18.898 19.2865 20.2868 17.8977 22 17.8977C23.7131 17.8977 25.1019 19.2865 25.1019 20.9997C25.1019 22.7128 23.7131 24.1016 22 24.1016C20.2868 24.1016 18.898 22.7128 18.898 20.9997Z" fill="#D0D5DD"/>
<path d="M21.9561 3H22.0434V39H21.9561V3Z" fill="#D0D5DD"/>
<path d="M40 20.9561L40 21.0434L4 21.0434L4 20.9561L40 20.9561Z" fill="#D0D5DD"/>
<path d="M33.9273 3H34.0147V39H33.9273V3Z" fill="#D0D5DD"/>
<path d="M15.9707 3H16.0581V39H15.9707V3Z" fill="#D0D5DD"/>
<path d="M27.942 3H28.0293V39H27.942V3Z" fill="#D0D5DD"/>
<path d="M9.98535 3H10.0727V39H9.98535V3Z" fill="#D0D5DD"/>
<path d="M40 32.9268L40 33.0141L4 33.0141L4 32.9268L40 32.9268Z" fill="#D0D5DD"/>
<path d="M40 14.9707L40 15.0581L4 15.0581L4 14.9707L40 14.9707Z" fill="#D0D5DD"/>
<path d="M40 26.9414L40 27.0288L4 27.0288L4 26.9414L40 26.9414Z" fill="#D0D5DD"/>
<path d="M40 8.98535L40 9.07273L4 9.07273L4 8.98535L40 8.98535Z" fill="#D0D5DD"/>
<g filter="url(#filter1_dd_24_9086)">
<circle cx="22" cy="21" r="9" fill="url(#paint1_linear_24_9086)"/>
</g>
<g filter="url(#filter2_b_24_9086)">
<path d="M4 21H40V24.6C40 29.6405 40 32.1607 39.0191 34.0859C38.1562 35.7794 36.7794 37.1562 35.0859 38.0191C33.1607 39 30.6405 39 25.6 39H18.4C13.3595 39 10.8393 39 8.91409 38.0191C7.22063 37.1562 5.8438 35.7794 4.98094 34.0859C4 32.1607 4 29.6405 4 24.6V21Z" fill="white" fill-opacity="0.2"/>
</g>
</g>
<rect x="4.1125" y="3.1125" width="35.775" height="35.775" rx="8.8875" stroke="#D0D5DD" stroke-width="0.225"/>
</g>
<defs>
<filter id="filter0_dd_24_9086" x="0.625" y="0.75" width="42.75" height="42.75" filterUnits="userSpaceOnUse" color-interpolation-filters="sRGB">
<feFlood flood-opacity="0" result="BackgroundImageFix"/>
<feColorMatrix in="SourceAlpha" type="matrix" values="0 0 0 0 0 0 0 0 0 0 0 0 0 0 0 0 0 0 127 0" result="hardAlpha"/>
<feOffset dy="1.125"/>
<feGaussianBlur stdDeviation="1.125"/>
<feColorMatrix type="matrix" values="0 0 0 0 0.0627451 0 0 0 0 0.0941176 0 0 0 0 0.156863 0 0 0 0.06 0"/>
<feBlend mode="normal" in2="BackgroundImageFix" result="effect1_dropShadow_24_9086"/>
<feColorMatrix in="SourceAlpha" type="matrix" values="0 0 0 0 0 0 0 0 0 0 0 0 0 0 0 0 0 0 127 0" result="hardAlpha"/>
<feOffset dy="1.125"/>
<feGaussianBlur stdDeviation="1.6875"/>
<feColorMatrix type="matrix" values="0 0 0 0 0.0627451 0 0 0 0 0.0941176 0 0 0 0 0.156863 0 0 0 0.1 0"/>
<feBlend mode="normal" in2="effect1_dropShadow_24_9086" result="effect2_dropShadow_24_9086"/>
<feBlend mode="normal" in="SourceGraphic" in2="effect2_dropShadow_24_9086" result="shape"/>
</filter>
<filter id="filter1_dd_24_9086" x="9.625" y="9.75" width="24.75" height="24.75" filterUnits="userSpaceOnUse" color-interpolation-filters="sRGB">
<feFlood flood-opacity="0" result="BackgroundImageFix"/>
<feColorMatrix in="SourceAlpha" type="matrix" values="0 0 0 0 0 0 0 0 0 0 0 0 0 0 0 0 0 0 127 0" result="hardAlpha"/>
<feOffset dy="1.125"/>
<feGaussianBlur stdDeviation="1.125"/>
<feColorMatrix type="matrix" values="0 0 0 0 0.0627451 0 0 0 0 0.0941176 0 0 0 0 0.156863 0 0 0 0.06 0"/>
<feBlend mode="normal" in2="BackgroundImageFix" result="effect1_dropShadow_24_9086"/>
<feColorMatrix in="SourceAlpha" type="matrix" values="0 0 0 0 0 0 0 0 0 0 0 0 0 0 0 0 0 0 127 0" result="hardAlpha"/>
<feOffset dy="1.125"/>
<feGaussianBlur stdDeviation="1.6875"/>
<feColorMatrix type="matrix" values="0 0 0 0 0.0627451 0 0 0 0 0.0941176 0 0 0 0 0.156863 0 0 0 0.1 0"/>
<feBlend mode="normal" in2="effect1_dropShadow_24_9086" result="effect2_dropShadow_24_9086"/>
<feBlend mode="normal" in="SourceGraphic" in2="effect2_dropShadow_24_9086" result="shape"/>
</filter>
<filter id="filter2_b_24_9086" x="-1.625" y="15.375" width="47.25" height="29.25" filterUnits="userSpaceOnUse" color-interpolation-filters="sRGB">
<feFlood flood-opacity="0" result="BackgroundImageFix"/>
<feGaussianBlur in="BackgroundImageFix" stdDeviation="2.8125"/>
<feComposite in2="SourceAlpha" operator="in" result="effect1_backgroundBlur_24_9086"/>
<feBlend mode="normal" in="SourceGraphic" in2="effect1_backgroundBlur_24_9086" result="shape"/>
</filter>
<linearGradient id="paint0_linear_24_9086" x1="22" y1="3" x2="22" y2="39" gradientUnits="userSpaceOnUse">
<stop stop-color="white"/>
<stop offset="1" stop-color="#D0D5DD"/>
</linearGradient>
<linearGradient id="paint1_linear_24_9086" x1="17.5" y1="30" x2="26.5" y2="12" gradientUnits="userSpaceOnUse">
<stop stop-color="#53389E"/>
<stop offset="1" stop-color="#6941C6"/>
</linearGradient>
<clipPath id="clip0_24_9086">
<rect x="4" y="3" width="36" height="36" rx="9" fill="white"/>
</clipPath>
</defs>
</svg>
