<svg width="146" height="32" viewBox="0 0 146 32" fill="none" xmlns="http://www.w3.org/2000/svg">
<g filter="url(#filter0_dd_24_9085)">
<g clip-path="url(#clip0_24_9085)">
<rect x="4" y="2.5" width="25" height="25" rx="6" fill="white"/>
<rect x="4" y="2.5" width="25" height="25" rx="6" fill="url(#paint0_linear_24_9085)"/>
<path fill-rule="evenodd" clip-rule="evenodd" d="M16.4998 4.09285C10.476 4.09285 5.59266 8.97615 5.59266 15C5.59266 21.0239 10.476 25.9072 16.4998 25.9072C22.5237 25.9072 27.407 21.0239 27.407 15C27.407 8.97615 22.5237 4.09285 16.4998 4.09285ZM5.53198 15C5.53198 8.94263 10.4425 4.03217 16.4998 4.03217C22.5572 4.03217 27.4677 8.94263 27.4677 15C27.4677 21.0574 22.5572 25.9678 16.4998 25.9678C10.4425 25.9678 5.53198 21.0574 5.53198 15Z" fill="#D0D5DD"/>
<path fill-rule="evenodd" clip-rule="evenodd" d="M16.5 11.9359C14.8076 11.9359 13.4357 13.3078 13.4357 15.0002C13.4357 16.6926 14.8076 18.0645 16.5 18.0645C18.1924 18.0645 19.5643 16.6926 19.5643 15.0002C19.5643 13.3078 18.1924 11.9359 16.5 11.9359ZM13.375 15.0002C13.375 13.2743 14.7741 11.8752 16.5 11.8752C18.2259 11.8752 19.625 13.2743 19.625 15.0002C19.625 16.7261 18.2259 18.1252 16.5 18.1252C14.7741 18.1252 13.375 16.7261 13.375 15.0002Z" fill="#D0D5DD"/>
<path fill-rule="evenodd" clip-rule="evenodd" d="M16.5 12.9063C15.3438 12.9063 14.4065 13.8436 14.4065 14.9998C14.4065 16.1559 15.3438 17.0932 16.5 17.0932C17.6561 17.0932 18.5934 16.1559 18.5934 14.9998C18.5934 13.8436 17.6561 12.9063 16.5 12.9063ZM14.3458 14.9998C14.3458 13.8101 15.3103 12.8456 16.5 12.8456C17.6897 12.8456 18.6541 13.8101 18.6541 14.9998C18.6541 16.1895 17.6897 17.1539 16.5 17.1539C15.3103 17.1539 14.3458 16.1895 14.3458 14.9998Z" fill="#D0D5DD"/>
<path d="M16.4695 2.5H16.5302V27.5H16.4695V2.5Z" fill="#D0D5DD"/>
<path d="M29 14.9695L29 15.0302L4 15.0302L4 14.9695L29 14.9695Z" fill="#D0D5DD"/>
<path d="M24.7829 2.5H24.8435V27.5H24.7829V2.5Z" fill="#D0D5DD"/>
<path d="M12.313 2.5H12.3737V27.5H12.313V2.5Z" fill="#D0D5DD"/>
<path d="M20.6264 2.5H20.687V27.5H20.6264V2.5Z" fill="#D0D5DD"/>
<path d="M8.15649 2.5H8.21717V27.5H8.15649V2.5Z" fill="#D0D5DD"/>
<path d="M29 23.2825L29 23.3432L4 23.3431L4 23.2825L29 23.2825Z" fill="#D0D5DD"/>
<path d="M29 10.813L29 10.8737L4 10.8737L4 10.813L29 10.813Z" fill="#D0D5DD"/>
<path d="M29 19.126L29 19.1867L4 19.1867L4 19.126L29 19.126Z" fill="#D0D5DD"/>
<path d="M29 6.65649L29 6.71717L4 6.71717L4 6.65649L29 6.65649Z" fill="#D0D5DD"/>
<g filter="url(#filter1_dd_24_9085)">
<circle cx="16.5" cy="15" r="6.25" fill="url(#paint1_linear_24_9085)"/>
</g>
<g filter="url(#filter2_b_24_9085)">
<path d="M4 15H29V15C29 18.2568 29 19.8852 28.5835 21.2064C27.7005 24.0068 25.5068 26.2005 22.7064 27.0835C21.3852 27.5 19.7568 27.5 16.5 27.5V27.5C13.2432 27.5 11.6148 27.5 10.2936 27.0835C7.49317 26.2005 5.29953 24.0068 4.41655 21.2064C4 19.8852 4 18.2568 4 15V15Z" fill="white" fill-opacity="0.2"/>
</g>
</g>
<rect x="4.1125" y="2.6125" width="24.775" height="24.775" rx="5.8875" stroke="#D0D5DD" stroke-width="0.225"/>
</g>
<path d="M47.9258 18.3379C47.9258 18.0449 47.8802 17.7845 47.7891 17.5566C47.7044 17.3288 47.5514 17.1204 47.3301 16.9316C47.1087 16.7428 46.7962 16.5605 46.3926 16.3848C45.9954 16.2025 45.4876 16.0169 44.8691 15.8281C44.1921 15.6198 43.5671 15.3887 42.9941 15.1348C42.4277 14.8743 41.9329 14.5749 41.5098 14.2363C41.0866 13.8913 40.7578 13.4974 40.5234 13.0547C40.2891 12.6055 40.1719 12.0879 40.1719 11.502C40.1719 10.9225 40.2923 10.3952 40.5332 9.91992C40.7806 9.44466 41.1289 9.03451 41.5781 8.68945C42.0339 8.33789 42.571 8.06771 43.1895 7.87891C43.8079 7.68359 44.4915 7.58594 45.2402 7.58594C46.2949 7.58594 47.2031 7.78125 47.9648 8.17188C48.7331 8.5625 49.3223 9.08659 49.7324 9.74414C50.1491 10.4017 50.3574 11.1276 50.3574 11.9219H47.9258C47.9258 11.4531 47.8249 11.0397 47.623 10.6816C47.4277 10.3171 47.1283 10.0306 46.7246 9.82227C46.3275 9.61393 45.8229 9.50977 45.2109 9.50977C44.6315 9.50977 44.1497 9.59766 43.7656 9.77344C43.3815 9.94922 43.0951 10.1868 42.9062 10.4863C42.7174 10.7858 42.623 11.1243 42.623 11.502C42.623 11.7689 42.6849 12.013 42.8086 12.2344C42.9323 12.4492 43.1211 12.651 43.375 12.8398C43.6289 13.0221 43.9479 13.1947 44.332 13.3574C44.7161 13.5202 45.1686 13.6764 45.6895 13.8262C46.4772 14.0605 47.1641 14.321 47.75 14.6074C48.3359 14.8874 48.8242 15.2064 49.2148 15.5645C49.6055 15.9225 49.8984 16.3294 50.0938 16.7852C50.2891 17.2344 50.3867 17.7454 50.3867 18.3184C50.3867 18.9173 50.2663 19.4577 50.0254 19.9395C49.7845 20.4147 49.4395 20.8216 48.9902 21.1602C48.5475 21.4922 48.0137 21.7493 47.3887 21.9316C46.7702 22.1074 46.0801 22.1953 45.3184 22.1953C44.6348 22.1953 43.9609 22.1042 43.2969 21.9219C42.6393 21.7396 42.0404 21.4629 41.5 21.0918C40.9596 20.7142 40.5299 20.2454 40.2109 19.6855C39.8919 19.1191 39.7324 18.4583 39.7324 17.7031H42.1836C42.1836 18.1654 42.2617 18.5592 42.418 18.8848C42.5807 19.2103 42.8053 19.4772 43.0918 19.6855C43.3783 19.8874 43.7103 20.0371 44.0879 20.1348C44.472 20.2324 44.8822 20.2812 45.3184 20.2812C45.8913 20.2812 46.3698 20.1999 46.7539 20.0371C47.1445 19.8743 47.4375 19.6465 47.6328 19.3535C47.8281 19.0605 47.9258 18.722 47.9258 18.3379ZM57.1641 11.4336V13.1523H51.207V11.4336H57.1641ZM52.9258 8.8457H55.2793V19.0801C55.2793 19.4056 55.3249 19.6562 55.416 19.832C55.5137 20.0013 55.6471 20.1152 55.8164 20.1738C55.9857 20.2324 56.1842 20.2617 56.4121 20.2617C56.5749 20.2617 56.7311 20.252 56.8809 20.2324C57.0306 20.2129 57.151 20.1934 57.2422 20.1738L57.252 21.9707C57.0566 22.0293 56.8288 22.0814 56.5684 22.127C56.3145 22.1725 56.0215 22.1953 55.6895 22.1953C55.1491 22.1953 54.6706 22.1009 54.2539 21.9121C53.8372 21.7168 53.5117 21.401 53.2773 20.9648C53.043 20.5286 52.9258 19.9492 52.9258 19.2266V8.8457ZM65.3379 19.5098V11.4336H67.7012V22H65.4746L65.3379 19.5098ZM65.6699 17.3125L66.4609 17.293C66.4609 18.0026 66.3828 18.6569 66.2266 19.2559C66.0703 19.8483 65.8294 20.3659 65.5039 20.8086C65.1784 21.2448 64.7617 21.5866 64.2539 21.834C63.7461 22.0749 63.1374 22.1953 62.4277 22.1953C61.9134 22.1953 61.4414 22.1204 61.0117 21.9707C60.582 21.821 60.2109 21.5898 59.8984 21.2773C59.5924 20.9648 59.3548 20.5579 59.1855 20.0566C59.0163 19.5553 58.9316 18.9564 58.9316 18.2598V11.4336H61.2852V18.2793C61.2852 18.6634 61.3307 18.9857 61.4219 19.2461C61.513 19.5 61.6367 19.7051 61.793 19.8613C61.9492 20.0176 62.1315 20.1283 62.3398 20.1934C62.5482 20.2585 62.7695 20.291 63.0039 20.291C63.6745 20.291 64.2018 20.1608 64.5859 19.9004C64.9766 19.6335 65.2533 19.2754 65.416 18.8262C65.5853 18.377 65.6699 17.8724 65.6699 17.3125ZM76.5586 19.8125V7H78.9219V22H76.7832L76.5586 19.8125ZM69.6836 16.834V16.6289C69.6836 15.8281 69.778 15.099 69.9668 14.4414C70.1556 13.7773 70.429 13.2077 70.7871 12.7324C71.1452 12.2507 71.5814 11.8828 72.0957 11.6289C72.61 11.3685 73.1895 11.2383 73.834 11.2383C74.472 11.2383 75.0319 11.362 75.5137 11.6094C75.9954 11.8568 76.4056 12.2116 76.7441 12.6738C77.0827 13.1296 77.3529 13.6764 77.5547 14.3145C77.7565 14.946 77.8997 15.6491 77.9844 16.4238V17.0781C77.8997 17.8333 77.7565 18.5234 77.5547 19.1484C77.3529 19.7734 77.0827 20.3138 76.7441 20.7695C76.4056 21.2253 75.9922 21.5768 75.5039 21.8242C75.0221 22.0716 74.459 22.1953 73.8145 22.1953C73.1764 22.1953 72.6003 22.0618 72.0859 21.7949C71.5781 21.528 71.1452 21.1536 70.7871 20.6719C70.429 20.1901 70.1556 19.6237 69.9668 18.9727C69.778 18.3151 69.6836 17.6022 69.6836 16.834ZM72.0371 16.6289V16.834C72.0371 17.3158 72.0794 17.765 72.1641 18.1816C72.2552 18.5983 72.3952 18.9661 72.584 19.2852C72.7728 19.5977 73.0169 19.8451 73.3164 20.0273C73.6224 20.2031 73.987 20.291 74.4102 20.291C74.944 20.291 75.3835 20.1738 75.7285 19.9395C76.0736 19.7051 76.3438 19.3893 76.5391 18.9922C76.7409 18.5885 76.8776 18.1393 76.9492 17.6445V15.877C76.9102 15.4928 76.8288 15.1348 76.7051 14.8027C76.5879 14.4707 76.4284 14.181 76.2266 13.9336C76.0247 13.6797 75.7741 13.4844 75.4746 13.3477C75.1816 13.2044 74.8333 13.1328 74.4297 13.1328C74 13.1328 73.6354 13.224 73.3359 13.4062C73.0365 13.5885 72.7891 13.8392 72.5938 14.1582C72.4049 14.4772 72.265 14.8483 72.1738 15.2715C72.0827 15.6947 72.0371 16.1471 72.0371 16.6289ZM86.041 22.1953C85.2598 22.1953 84.5534 22.0684 83.9219 21.8145C83.2969 21.554 82.763 21.1927 82.3203 20.7305C81.8841 20.2682 81.5488 19.7246 81.3145 19.0996C81.0801 18.4746 80.9629 17.8008 80.9629 17.0781V16.6875C80.9629 15.8607 81.0833 15.112 81.3242 14.4414C81.5651 13.7708 81.9004 13.1979 82.3301 12.7227C82.7598 12.2409 83.2676 11.873 83.8535 11.6191C84.4395 11.3652 85.0742 11.2383 85.7578 11.2383C86.513 11.2383 87.1738 11.3652 87.7402 11.6191C88.3066 11.873 88.7754 12.2311 89.1465 12.6934C89.5241 13.1491 89.804 13.6927 89.9863 14.3242C90.1751 14.9557 90.2695 15.6523 90.2695 16.4141V17.4199H82.1055V15.7305H87.9453V15.5449C87.9323 15.1217 87.8477 14.7246 87.6914 14.3535C87.5417 13.9824 87.3105 13.6829 86.998 13.4551C86.6855 13.2272 86.2689 13.1133 85.748 13.1133C85.3574 13.1133 85.0091 13.1979 84.7031 13.3672C84.4036 13.5299 84.153 13.7676 83.9512 14.0801C83.7493 14.3926 83.5931 14.7702 83.4824 15.2129C83.3783 15.6491 83.3262 16.1406 83.3262 16.6875V17.0781C83.3262 17.5404 83.388 17.9701 83.5117 18.3672C83.6419 18.7578 83.8307 19.0996 84.0781 19.3926C84.3255 19.6855 84.625 19.9167 84.9766 20.0859C85.3281 20.2487 85.7285 20.3301 86.1777 20.3301C86.7441 20.3301 87.2487 20.2161 87.6914 19.9883C88.1341 19.7604 88.5182 19.4382 88.8438 19.0215L90.084 20.2227C89.8561 20.5547 89.5599 20.8737 89.1953 21.1797C88.8307 21.4792 88.3848 21.7233 87.8574 21.9121C87.3366 22.1009 86.7311 22.1953 86.041 22.1953ZM94.4395 13.6895V22H92.0859V11.4336H94.3027L94.4395 13.6895ZM94.0195 16.3262L93.2578 16.3164C93.2643 15.5677 93.3685 14.8809 93.5703 14.2559C93.7786 13.6309 94.0651 13.0938 94.4297 12.6445C94.8008 12.1953 95.2435 11.8503 95.7578 11.6094C96.2721 11.362 96.8451 11.2383 97.4766 11.2383C97.9844 11.2383 98.4434 11.3099 98.8535 11.4531C99.2702 11.5898 99.625 11.8145 99.918 12.127C100.217 12.4395 100.445 12.8464 100.602 13.3477C100.758 13.8424 100.836 14.4512 100.836 15.1738V22H98.4727V15.1641C98.4727 14.6562 98.3978 14.2559 98.248 13.9629C98.1048 13.6634 97.8932 13.4518 97.6133 13.3281C97.3398 13.1979 96.998 13.1328 96.5879 13.1328C96.1842 13.1328 95.8229 13.2174 95.5039 13.3867C95.1849 13.556 94.9147 13.7871 94.6934 14.0801C94.4785 14.373 94.3125 14.7116 94.1953 15.0957C94.0781 15.4798 94.0195 15.89 94.0195 16.3262ZM108.082 11.4336V13.1523H102.125V11.4336H108.082ZM103.844 8.8457H106.197V19.0801C106.197 19.4056 106.243 19.6562 106.334 19.832C106.432 20.0013 106.565 20.1152 106.734 20.1738C106.904 20.2324 107.102 20.2617 107.33 20.2617C107.493 20.2617 107.649 20.252 107.799 20.2324C107.949 20.2129 108.069 20.1934 108.16 20.1738L108.17 21.9707C107.975 22.0293 107.747 22.0814 107.486 22.127C107.232 22.1725 106.939 22.1953 106.607 22.1953C106.067 22.1953 105.589 22.1009 105.172 21.9121C104.755 21.7168 104.43 21.401 104.195 20.9648C103.961 20.5286 103.844 19.9492 103.844 19.2266V8.8457ZM119.527 13.7188V15.6621H111.979V13.7188H119.527ZM112.584 7.78125V22H110.133V7.78125H112.584ZM121.412 7.78125V22H118.971V7.78125H121.412ZM130.455 19.5098V11.4336H132.818V22H130.592L130.455 19.5098ZM130.787 17.3125L131.578 17.293C131.578 18.0026 131.5 18.6569 131.344 19.2559C131.188 19.8483 130.947 20.3659 130.621 20.8086C130.296 21.2448 129.879 21.5866 129.371 21.834C128.863 22.0749 128.255 22.1953 127.545 22.1953C127.031 22.1953 126.559 22.1204 126.129 21.9707C125.699 21.821 125.328 21.5898 125.016 21.2773C124.71 20.9648 124.472 20.5579 124.303 20.0566C124.133 19.5553 124.049 18.9564 124.049 18.2598V11.4336H126.402V18.2793C126.402 18.6634 126.448 18.9857 126.539 19.2461C126.63 19.5 126.754 19.7051 126.91 19.8613C127.066 20.0176 127.249 20.1283 127.457 20.1934C127.665 20.2585 127.887 20.291 128.121 20.291C128.792 20.291 129.319 20.1608 129.703 19.9004C130.094 19.6335 130.37 19.2754 130.533 18.8262C130.702 18.377 130.787 17.8724 130.787 17.3125ZM135.24 7H137.594V19.7441L137.369 22H135.24V7ZM144.488 16.6191V16.8242C144.488 17.6055 144.4 18.3249 144.225 18.9824C144.055 19.6335 143.795 20.1999 143.443 20.6816C143.098 21.1634 142.669 21.5378 142.154 21.8047C141.646 22.0651 141.057 22.1953 140.387 22.1953C139.729 22.1953 139.156 22.0716 138.668 21.8242C138.18 21.5768 137.77 21.2253 137.438 20.7695C137.112 20.3138 136.848 19.7702 136.646 19.1387C136.445 18.5072 136.301 17.8105 136.217 17.0488V16.3945C136.301 15.6263 136.445 14.9297 136.646 14.3047C136.848 13.6732 137.112 13.1296 137.438 12.6738C137.77 12.2116 138.176 11.8568 138.658 11.6094C139.146 11.362 139.716 11.2383 140.367 11.2383C141.044 11.2383 141.64 11.3685 142.154 11.6289C142.675 11.8893 143.108 12.2604 143.453 12.7422C143.798 13.2174 144.055 13.7839 144.225 14.4414C144.4 15.099 144.488 15.8249 144.488 16.6191ZM142.135 16.8242V16.6191C142.135 16.1439 142.096 15.6979 142.018 15.2812C141.939 14.8581 141.809 14.487 141.627 14.168C141.451 13.849 141.21 13.5983 140.904 13.416C140.605 13.2272 140.23 13.1328 139.781 13.1328C139.365 13.1328 139.007 13.2044 138.707 13.3477C138.408 13.4909 138.157 13.6862 137.955 13.9336C137.753 14.181 137.594 14.4674 137.477 14.793C137.366 15.1185 137.291 15.4701 137.252 15.8477V17.6152C137.311 18.1035 137.434 18.5527 137.623 18.9629C137.818 19.3665 138.092 19.6921 138.443 19.9395C138.795 20.1803 139.247 20.3008 139.801 20.3008C140.237 20.3008 140.605 20.2129 140.904 20.0371C141.204 19.8613 141.441 19.6172 141.617 19.3047C141.799 18.9857 141.93 18.6146 142.008 18.1914C142.092 17.7682 142.135 17.3125 142.135 16.8242Z" fill="white"/>
<defs>
<filter id="filter0_dd_24_9085" x="0.625" y="0.25" width="31.75" height="31.75" filterUnits="userSpaceOnUse" color-interpolation-filters="sRGB">
<feFlood flood-opacity="0" result="BackgroundImageFix"/>
<feColorMatrix in="SourceAlpha" type="matrix" values="0 0 0 0 0 0 0 0 0 0 0 0 0 0 0 0 0 0 127 0" result="hardAlpha"/>
<feOffset dy="1.125"/>
<feGaussianBlur stdDeviation="1.125"/>
<feColorMatrix type="matrix" values="0 0 0 0 0.0627451 0 0 0 0 0.0941176 0 0 0 0 0.156863 0 0 0 0.06 0"/>
<feBlend mode="normal" in2="BackgroundImageFix" result="effect1_dropShadow_24_9085"/>
<feColorMatrix in="SourceAlpha" type="matrix" values="0 0 0 0 0 0 0 0 0 0 0 0 0 0 0 0 0 0 127 0" result="hardAlpha"/>
<feOffset dy="1.125"/>
<feGaussianBlur stdDeviation="1.6875"/>
<feColorMatrix type="matrix" values="0 0 0 0 0.0627451 0 0 0 0 0.0941176 0 0 0 0 0.156863 0 0 0 0.1 0"/>
<feBlend mode="normal" in2="effect1_dropShadow_24_9085" result="effect2_dropShadow_24_9085"/>
<feBlend mode="normal" in="SourceGraphic" in2="effect2_dropShadow_24_9085" result="shape"/>
</filter>
<filter id="filter1_dd_24_9085" x="6.875" y="6.5" width="19.25" height="19.25" filterUnits="userSpaceOnUse" color-interpolation-filters="sRGB">
<feFlood flood-opacity="0" result="BackgroundImageFix"/>
<feColorMatrix in="SourceAlpha" type="matrix" values="0 0 0 0 0 0 0 0 0 0 0 0 0 0 0 0 0 0 127 0" result="hardAlpha"/>
<feOffset dy="1.125"/>
<feGaussianBlur stdDeviation="1.125"/>
<feColorMatrix type="matrix" values="0 0 0 0 0.0627451 0 0 0 0 0.0941176 0 0 0 0 0.156863 0 0 0 0.06 0"/>
<feBlend mode="normal" in2="BackgroundImageFix" result="effect1_dropShadow_24_9085"/>
<feColorMatrix in="SourceAlpha" type="matrix" values="0 0 0 0 0 0 0 0 0 0 0 0 0 0 0 0 0 0 127 0" result="hardAlpha"/>
<feOffset dy="1.125"/>
<feGaussianBlur stdDeviation="1.6875"/>
<feColorMatrix type="matrix" values="0 0 0 0 0.0627451 0 0 0 0 0.0941176 0 0 0 0 0.156863 0 0 0 0.1 0"/>
<feBlend mode="normal" in2="effect1_dropShadow_24_9085" result="effect2_dropShadow_24_9085"/>
<feBlend mode="normal" in="SourceGraphic" in2="effect2_dropShadow_24_9085" result="shape"/>
</filter>
<filter id="filter2_b_24_9085" x="-1.625" y="9.375" width="36.25" height="23.75" filterUnits="userSpaceOnUse" color-interpolation-filters="sRGB">
<feFlood flood-opacity="0" result="BackgroundImageFix"/>
<feGaussianBlur in="BackgroundImageFix" stdDeviation="2.8125"/>
<feComposite in2="SourceAlpha" operator="in" result="effect1_backgroundBlur_24_9085"/>
<feBlend mode="normal" in="SourceGraphic" in2="effect1_backgroundBlur_24_9085" result="shape"/>
</filter>
<linearGradient id="paint0_linear_24_9085" x1="16.5" y1="2.5" x2="16.5" y2="27.5" gradientUnits="userSpaceOnUse">
<stop stop-color="white"/>
<stop offset="1" stop-color="#D0D5DD"/>
</linearGradient>
<linearGradient id="paint1_linear_24_9085" x1="13.375" y1="21.25" x2="19.625" y2="8.75" gradientUnits="userSpaceOnUse">
<stop stop-color="#53389E"/>
<stop offset="1" stop-color="#6941C6"/>
</linearGradient>
<clipPath id="clip0_24_9085">
<rect x="4" y="2.5" width="25" height="25" rx="6" fill="white"/>
</clipPath>
</defs>
</svg>
